<?xml version="1.0" encoding="UTF-8" standalone="no"?>
<!-- Created with Inkscape (http://www.inkscape.org/) -->

<svg
   width="360"
   height="360"
   viewBox="0 0 95.249998 95.249999"
   version="1.1"
   id="svg5"
   xml:space="preserve"
   inkscape:version="1.2.1 (9c6d41e410, 2022-07-14)"
   sodipodi:docname="JacobBollesCo.svg"
   xmlns:inkscape="http://www.inkscape.org/namespaces/inkscape"
   xmlns:sodipodi="http://sodipodi.sourceforge.net/DTD/sodipodi-0.dtd"
   xmlns="http://www.w3.org/2000/svg"
   xmlns:svg="http://www.w3.org/2000/svg"><sodipodi:namedview
     id="namedview7"
     pagecolor="#ffffff"
     bordercolor="#000000"
     borderopacity="0.25"
     inkscape:showpageshadow="2"
     inkscape:pageopacity="0.0"
     inkscape:pagecheckerboard="0"
     inkscape:deskcolor="#d1d1d1"
     inkscape:document-units="mm"
     showgrid="false"
     showguides="true"
     inkscape:zoom="1"
     inkscape:cx="498.5"
     inkscape:cy="172"
     inkscape:window-width="1920"
     inkscape:window-height="1017"
     inkscape:window-x="1912"
     inkscape:window-y="-8"
     inkscape:window-maximized="1"
     inkscape:current-layer="layer1"><sodipodi:guide
       position="7.0967529,38.448114"
       orientation="1,0"
       id="guide965"
       inkscape:locked="false" /><sodipodi:guide
       position="88.118761,33.136561"
       orientation="1,0"
       id="guide967"
       inkscape:locked="false" /></sodipodi:namedview><defs
     id="defs2" /><g
     inkscape:label="Layer 1"
     inkscape:groupmode="layer"
     id="layer1"><g
       id="g978"
       transform="translate(0,-4.7625031)"><path
         style="fill:#fafafa;stroke-width:0.499999"
         d="m 17.120071,39.508436 10.324449,-8.17353 v -7.01202 H 17.16309 Z"
         id="path371" /><path
         style="fill:#fafafa;stroke-width:0.499999"
         d="m 7.096753,52.457016 4.323363,4.32336 36.157082,-30.22053 36.092558,30.24204 4.48349,-4.55997 -40.576048,-33.812568 z"
         id="path369" /><path
         style="fill:#fafafa;stroke-width:0.499999"
         d="m 28.490834,50.273846 c -0.0079,-0.5951 0.251266,-0.7869 0.593164,-0.79089 h 3.946826 c 0.459858,0 0.813702,0.30579 0.813702,0.97343 v 4.83657 c 0,0.98429 0.519318,1.01903 1.019027,1.01903 h 5.323271 c 0.944152,0 1.421543,-1.17608 1.421543,-2.46218 v -19.5681 c 0,-0.35485 -1e-6,-0.66679 0.526984,-0.66679 h 4.280347 c 0.468663,0 0.473202,0.31186 0.473202,0.70981 v 11.70194 l -11.701042,20.45442 1.698538,-4.21464 c 0.293567,-0.72844 -0.425657,-1.04184 -1.041842,-1.04184 h -2.250982 c -3.079477,0 -5.02289,-2.42168 -5.02289,-5.02289 0.0036,-1.97617 -0.0537,-3.95195 -0.07985,-5.92787 z"
         id="path373"
         sodipodi:nodetypes="ssssssssssssccssscss" /><path
         id="path537"
         style="fill:#fafafa;fill-opacity:1;stroke-width:0.499999"
         d="m 48.130857,55.802446 c 0.0026,-0.35961 0.170714,-0.62359 0.596019,-0.62359 1.809912,0 4.469251,-0.19692 5.429737,0 1.417948,0.29071 2.079878,1.10506 2.079878,2.07988 v 3.58561 c 0,1.16687 -0.853939,1.86885 -1.868847,1.86885 h -5.770049 c -0.304085,0 -0.473675,-0.24072 -0.466736,-0.46674 0.06592,-2.14699 -0.01549,-4.29606 -2e-6,-6.44401 z m 1.447742,-11.71881 h 4.783341 c 0.982186,0 1.612191,0.85626 1.612191,1.61219 v 3.78713 c 0,0.75602 -0.661747,1.4601 -1.460098,1.4601 h -5.840391 l -0.437793,-0.75828 v -4.10871 l -5.615527,9.7644 0.0205,10.64062 c 0.0013,0.69776 0.436103,0.88186 0.881867,0.88186 h 12.192886 c 3.402718,0 5.822079,-2.2886 5.822079,-5.82208 v -3.84486 c 0,-2.35802 -1.356912,-3.62919 -3.479839,-4.60843 1.673189,-1.03036 2.889776,-2.22816 2.889776,-3.94299 v -3.55522 c 0,-5.07005 -3.823212,-5.79942 -7.954491,-6.02291 -0.159992,-0.009 -0.203708,-0.20386 -0.04563,-0.56274 l 1.688238,-3.83276 -5.049504,8.24347 z" /></g></g></svg>
